<svg width="26" height="24" viewBox="0 0 26 24" fill="none" xmlns="http://www.w3.org/2000/svg">
<path d="M1.15316 6.81272C0.634215 9.40714 1.47018 11.819 3.11341 13.4718L3.66105 13.9811L11.8672 21.6491C12.5013 22.2448 13.4911 22.2448 14.1253 21.6491L22.2065 14.0964L23.0425 13.318C24.5992 11.6364 25.3775 9.27263 24.8202 6.6878C24.2628 4.10298 21.6204 1.5758 19.0451 1.12417C16.739 0.71099 14.6058 1.35479 13.0107 2.67122C13.0107 2.67122 12.9915 2.69044 12.9915 2.67122C11.406 1.35479 9.23429 0.71099 6.93782 1.13378C4.33371 1.60462 1.672 4.22788 1.16276 6.82233L1.15316 6.81272Z" stroke="#EEF5DB" stroke-width="2" stroke-linecap="round" stroke-linejoin="round"/>
</svg>
