<svg width="29" height="29" viewBox="0 0 29 29" fill="none" xmlns="http://www.w3.org/2000/svg">
<path d="M25.2556 24.3456H3.74436C2.34209 24.3456 1.20834 23.2119 1.20834 21.8096C1.20834 20.8449 1.75532 19.9697 2.6106 19.5421L12.6154 14.5496C13.7989 13.9529 15.2011 13.9529 16.3846 14.5496L26.3894 19.5421C27.2447 19.9697 27.7917 20.8449 27.7917 21.8096C27.7917 23.2119 26.6579 24.3456 25.2556 24.3456Z" stroke="#EEF5DB" stroke-width="2" stroke-linecap="round" stroke-linejoin="round"/>
<path d="M11.5913 7.56834C11.5913 5.95723 12.8941 4.65442 14.5052 4.65442C16.1163 4.65442 17.4191 5.95723 17.4191 7.56834C17.4191 7.86669 17.3694 8.16505 17.2898 8.43357C17.1706 8.81148 16.9517 9.19933 16.2556 9.8955C15.997 10.1541 15.6688 10.4524 15.261 10.7806C14.7836 11.1685 14.5151 11.7652 14.5151 12.3817V14.1023" stroke="#EEF5DB" stroke-width="2" stroke-linecap="round" stroke-linejoin="round"/>
</svg>
